<?xml version="1.0" encoding="utf-8"?>
<!-- Generator: Adobe Illustrator 26.0.1, SVG Export Plug-In . SVG Version: 6.00 Build 0)  -->
<svg version="1.1" id="Camada_1" xmlns="http://www.w3.org/2000/svg" xmlns:xlink="http://www.w3.org/1999/xlink" x="0px" y="0px"
	 viewBox="0 0 456 456" style="enable-background:new 0 0 456 456;" xml:space="preserve">
<style type="text/css">
	.st0{fill-rule:evenodd;clip-rule:evenodd;fill:#ED7004;}
	.st1{fill-rule:evenodd;clip-rule:evenodd;fill:#ED6D05;}
	.st2{fill:#ED6D05;}
	.st3{font-family:'ArialMT';}
	.st4{font-size:8.1405px;}
</style>
<path class="st0" d="M224,215.4c6.1,0.5,30.4-0.9,33.6,0.3c2,0.7,3.3,3.7,1.4,5.7c-1.5,1.6-4.8,1.1-7.3,1.1c-5.5,0-11.8-0.3-17.2,0
	c0.3,1,2.4,4.8,3.4,5.7c4,0.4,20.1,0.6,22.7-0.8c7.5-3.9,5.7-13,2.1-15.2c0.5-2.3,1.5-3,1.7-5.6c0.4-6.7-4.6-9.9-11.5-9.9
	c-9,0-20-0.6-28.8,0L224,215.4z M230.1,202.6c5.4,0,10.8,0,16.1,0c4.3,0,12.1-1.4,12.2,3.4c0.1,5.3-8.4,3.6-12.6,3.6
	c-5.3,0-10.7,0-16,0L230.1,202.6z"/>
<path class="st1" d="M268.5,215.2l5.8,0c0.1-3.7-0.5-7.1,1.5-9.7c2.1-2.7,3.7-3,8.1-3c3.7,0,7.4,0,11.2,0c3.7,0,6.2,0.3,8,3
	c3.3,5.1,2.2,13.4-2.3,16.1c-2.7,1.6-17.5,0.9-21.9,0.9c0.1,0.7,2.2,4.6,2.8,5.2c1.1,1.1,5.8,0.6,7.6,0.6c5,0,10.9,0.6,14.6-1.7
	c11-6.9,8.8-28.6-5.1-29.8c-4.6-0.4-11.2,0-16.1,0c-5.5,0-8.8,2-11.2,4.9C268.3,205.7,268.4,209.1,268.5,215.2"/>
<path class="st1" d="M166.5,202.7c5-0.5,11.6-0.1,16.7-0.1c4.8,0,11.8-0.9,14.4,2c1.4,1.6,1.6,4.4,0.2,6.3c-1.4,1.8-3.1,2.3-6.1,2.4
	c-5.7,0-11.4,0-17.1,0c0.2,1.4,1.8,4.6,2.5,5.7c2.3,0.3,5.7,0.1,8.1,0.1c2.6,0,3.5,0.3,5,3.6l1.3,1.2c4.5,5.6,2,4.4,10.2,4.6
	c-1.2-2.9-5.7-6.5-6.9-9.4c7.8-1.4,10.7-7.7,9.3-13.9c-0.6-2.7-2-3.9-2.5-5.4c-0.9-0.5-2.6-1.6-3.7-2.3c-5.4-1-10.8-0.7-16.5-0.7
	c-5.5,0-11.5-0.2-17,0L166.5,202.7z"/>
<path class="st1" d="M165,202.5l-0.2,0c-0.8-2.2-2.1-3.7-3.1-5.7l-38.1-0.1c0.4,2,2.2,4,3.1,5.8l14.3,0l0.1,25.6l5.8,0.1l0.1-25.6
	L165,202.5z"/>
<path class="st0" d="M210.2,228.3c7.6,0.3,5.9,2,5.9-12.5c0-6.3,0-12.7,0-19l-5.9-0.1V228.3z"/>
<text transform="matrix(1 0 0 1 180.0114 242.3712)" class="st2 st3 st4">P</text>
<text transform="matrix(1 0 0 1 188.3033 242.3712)" class="st2 st3 st4">E</text>
<text transform="matrix(1 0 0 1 196.5953 242.3712)" class="st2 st3 st4">R</text>
<text transform="matrix(1 0 0 1 205.3375 242.3712)" class="st2 st3 st4">S</text>
<text transform="matrix(1 0 0 1 213.6285 242.3712)" class="st2 st3 st4">O</text>
<text transform="matrix(1 0 0 1 222.8239 242.3712)" class="st2 st3 st4">N</text>
<text transform="matrix(1 0 0 1 231.566 242.3712)" class="st2 st3 st4">A</text>
<text transform="matrix(1 0 0 1 239.858 242.3712)" class="st2 st3 st4">L</text>
<text transform="matrix(1 0 0 1 244.0826 242.3712)" class="st2 st3 st4"> </text>
<text transform="matrix(1 0 0 1 249.2067 242.3712)" class="st2 st3 st4">E </text>
<text transform="matrix(1 0 0 1 259.7594 242.3712)" class="st2 st3 st4">S</text>
<text transform="matrix(1 0 0 1 268.0524 242.3712)" class="st2 st3 st4">T</text>
<text transform="matrix(1 0 0 1 275.8893 242.3712)" class="st2 st3 st4">U</text>
<text transform="matrix(1 0 0 1 284.6315 242.3712)" class="st2 st3 st4">D</text>
<text transform="matrix(1 0 0 1 293.3727 242.3712)" class="st2 st3 st4">I</text>
<text transform="matrix(1 0 0 1 298.4957 242.3712)" class="st2 st3 st4">O</text>
</svg>
